<svg width="45" height="45" viewBox="0 0 45 45" fill="none" xmlns="http://www.w3.org/2000/svg">
<g id="tabler:face-id">
<path id="Vector" d="M7.5 14.7704V11.0889C7.5 10.1125 7.89509 9.1761 8.59835 8.48569C9.30161 7.79528 10.2554 7.40741 11.25 7.40741H15M7.5 29.4963V33.1778C7.5 34.1542 7.89509 35.0906 8.59835 35.781C9.30161 36.4714 10.2554 36.8593 11.25 36.8593H15M30 7.40741H33.75C34.7446 7.40741 35.6984 7.79528 36.4016 8.48569C37.1049 9.1761 37.5 10.1125 37.5 11.0889V14.7704M30 36.8593H33.75C34.7446 36.8593 35.6984 36.4714 36.4016 35.781C37.1049 35.0906 37.5 34.1542 37.5 33.1778V29.4963M16.875 18.4519H16.8938M28.125 18.4519H28.1438M17.8125 27.6556C18.4235 28.2678 19.1528 28.7542 19.9577 29.0862C20.7626 29.4182 21.6269 29.5893 22.5 29.5893C23.3731 29.5893 24.2374 29.4182 25.0423 29.0862C25.8472 28.7542 26.5765 28.2678 27.1875 27.6556" stroke="#F77A07" stroke-width="2" stroke-linecap="round" stroke-linejoin="round"/>
</g>
</svg>
